<svg width="1437" height="700" viewBox="0 0 1437 700" fill="none" xmlns="http://www.w3.org/2000/svg">
<mask id="mask0_26_109" style="mask-type:alpha" maskUnits="userSpaceOnUse" x="-3" y="0" width="1440" height="700">
<rect x="-3" width="1440" height="700" fill="#C4C4C4"/>
</mask>
<g mask="url(#mask0_26_109)">
<path opacity="0.4" d="M1183.43 387.344C1176.2 383.178 1171.02 383.093 1167.87 387.004C1164.64 390.915 1163.11 397.546 1163.11 406.812V456.969C1163.11 466.49 1162.26 474.396 1160.48 480.687C1158.69 487.233 1155.72 491.824 1151.64 494.544C1147.64 497.35 1142.2 498.03 1135.32 496.755C1128.6 495.564 1120.19 491.994 1110.16 486.213L1105.4 483.408V443.877L1111.43 447.363C1118.66 451.528 1123.42 452.038 1125.8 449.063C1128.35 446.087 1129.62 439.967 1129.62 430.7V386.494C1129.62 374.932 1130.73 365.836 1133.02 359.205C1135.23 352.489 1139.74 348.238 1146.45 346.368C1139.74 336.762 1135.23 327.24 1133.02 317.974C1130.81 308.708 1129.71 298.336 1129.71 286.775V242.568C1129.71 233.302 1128.43 225.651 1125.88 219.785C1123.5 214.004 1118.66 208.989 1111.52 204.823L1105.48 201.338V161.807L1110.24 164.612C1120.27 170.393 1128.69 176.599 1135.4 183.145C1142.29 189.776 1147.73 196.747 1151.72 204.228C1155.89 211.709 1158.86 219.7 1160.56 228.286C1162.35 236.618 1163.2 245.544 1163.2 255.065V305.222C1163.2 314.489 1164.81 322.99 1167.96 330.556C1171.19 338.122 1176.37 344.073 1183.51 348.153L1183.43 387.344Z" fill="url(#paint0_linear_26_109)"/>
<path opacity="0.4" d="M1001.35 242.058C1008.57 246.224 1013.76 246.309 1016.9 242.398C1020.13 238.488 1021.66 231.857 1021.66 222.591V172.433C1021.66 162.912 1022.51 155.006 1024.3 148.715C1026.09 142.169 1028.98 137.578 1032.97 134.773C1037.14 132.053 1042.58 131.373 1049.29 132.563C1056.18 133.838 1064.68 137.408 1074.71 143.274L1079.47 146.08V185.61L1073.43 182.125C1066.21 177.959 1061.36 177.364 1058.81 180.339C1056.43 183.4 1055.24 189.521 1055.24 198.872V243.078C1055.24 254.555 1054.14 263.736 1051.84 270.367C1049.63 277.083 1045.13 281.334 1038.41 283.204C1045.13 292.811 1049.63 302.332 1051.84 311.598C1054.05 320.865 1055.16 331.236 1055.16 342.798V387.004C1055.16 396.27 1056.35 403.836 1058.73 409.702C1061.28 415.568 1066.12 420.669 1073.35 424.749L1079.38 428.235V467.766L1074.62 464.96C1064.59 459.179 1056.09 452.888 1049.21 446.342C1042.49 439.797 1037.05 432.826 1032.89 425.259C1028.89 417.863 1026 409.872 1024.3 401.371C1022.51 393.04 1021.66 384.114 1021.66 374.592V324.435C1021.66 315.169 1020.05 306.668 1016.9 299.101C1013.67 291.535 1008.49 285.585 1001.35 281.504V242.058Z" fill="url(#paint1_linear_26_109)"/>
<path opacity="0.15" d="M1208 142.934L1387.44 246.564L1387.36 676.81L1207.91 573.266L1208 142.934Z" fill="url(#paint2_linear_26_109)"/>
<path d="M1174.25 199.297L1317.06 281.674V321.205L1174.25 238.828V199.297Z" fill="#587298"/>
<path opacity="0.2" d="M1231.37 382.329L1366.7 460.455V580.067L1231.37 501.941V382.329Z" fill="url(#paint3_linear_26_109)"/>
<path opacity="0.15" d="M1230.01 290.6L1367.38 369.916V383.433L1230.01 304.117V290.6Z" fill="white"/>
<path opacity="0.15" d="M1230.01 317.804L1348.76 386.324V399.841L1230.01 331.321V317.804Z" fill="white"/>
<path opacity="0.15" d="M1230.01 344.668L1330.83 402.816V416.333L1230.01 358.185V344.668Z" fill="white"/>
<path opacity="0.2" d="M1208 142.934L1387.44 246.564V304.202L1207.91 200.658L1208 142.934Z" fill="url(#paint4_linear_26_109)"/>
<path opacity="0.2" d="M1252.79 198.022C1252.79 206.778 1247.69 210.859 1241.4 207.203C1235.11 203.548 1230.01 193.602 1230.01 184.845C1230.01 176.089 1235.11 172.008 1241.4 175.664C1247.69 179.319 1252.79 189.351 1252.79 198.022Z" fill="white"/>
<path opacity="0.15" d="M884.637 274.703L1437 593.499L1436.92 1024L884.552 705.205L884.637 274.703Z" fill="url(#paint5_linear_26_109)"/>
<path d="M848 380.798L990.723 463.175V502.705L848 420.414V380.798Z" fill="#EA8C4F"/>
<path opacity="0.15" d="M921.869 489.444L1238.77 672.39V685.907L921.869 502.961V489.444Z" fill="white"/>
<path opacity="0.15" d="M921.869 516.648L1195.25 674.43V687.947L921.869 530.165V516.648Z" fill="white"/>
<path opacity="0.15" d="M921.869 543.596L1154.53 677.915V691.432L921.869 557.113V543.596Z" fill="white"/>
<path opacity="0.2" d="M870.016 557.029L1101.99 690.923V810.535L870.016 676.556V557.029Z" fill="url(#paint6_linear_26_109)"/>
<path opacity="0.15" d="M893.392 601.15L1077.68 707.5V721.017L893.392 614.667V601.15Z" fill="white"/>
<path opacity="0.15" d="M893.392 628.354L1040.96 713.536V727.053L893.392 641.785V628.354Z" fill="white"/>
<path opacity="0.2" d="M884.637 274.703L1436.23 593.159V651.477L884.637 333.106V274.703Z" fill="url(#paint7_linear_26_109)"/>
<path opacity="0.2" d="M944.736 338.547C944.736 347.304 939.635 351.384 933.345 347.729C927.055 344.073 921.954 334.127 921.954 325.37C921.954 316.614 927.055 312.534 933.345 316.189C939.635 319.845 944.736 329.876 944.736 338.547Z" fill="white"/>
</g>
<defs>
<linearGradient id="paint0_linear_26_109" x1="1232.36" y1="149.876" x2="1093.12" y2="391.239" gradientUnits="userSpaceOnUse">
<stop stop-color="#424C57"/>
<stop offset="0.903" stop-color="white" stop-opacity="0"/>
</linearGradient>
<linearGradient id="paint1_linear_26_109" x1="1151.98" y1="133.512" x2="1012.73" y2="374.845" gradientUnits="userSpaceOnUse">
<stop stop-color="#414B56"/>
<stop offset="0.903" stop-color="white" stop-opacity="0"/>
</linearGradient>
<linearGradient id="paint2_linear_26_109" x1="1390.82" y1="248.519" x2="1219.21" y2="545.807" gradientUnits="userSpaceOnUse">
<stop stop-color="white"/>
<stop offset="1" stop-color="white" stop-opacity="0"/>
</linearGradient>
<linearGradient id="paint3_linear_26_109" x1="1324.95" y1="436.285" x2="1277.25" y2="518.909" gradientUnits="userSpaceOnUse">
<stop stop-color="white"/>
<stop offset="1" stop-color="white" stop-opacity="0"/>
</linearGradient>
<linearGradient id="paint4_linear_26_109" x1="1269.52" y1="143.828" x2="1324.24" y2="298.739" gradientUnits="userSpaceOnUse">
<stop stop-color="#424C58"/>
<stop offset="1" stop-color="white" stop-opacity="0"/>
</linearGradient>
<linearGradient id="paint5_linear_26_109" x1="1253.97" y1="487.856" x2="1163.07" y2="645.362" gradientUnits="userSpaceOnUse">
<stop stop-color="white"/>
<stop offset="1" stop-color="white" stop-opacity="0"/>
</linearGradient>
<linearGradient id="paint6_linear_26_109" x1="1011.89" y1="638.882" x2="964.192" y2="721.507" gradientUnits="userSpaceOnUse">
<stop stop-color="#434D58"/>
<stop offset="1" stop-color="white" stop-opacity="0"/>
</linearGradient>
<linearGradient id="paint7_linear_26_109" x1="1021.5" y1="227.714" x2="1230.97" y2="582.519" gradientUnits="userSpaceOnUse">
<stop stop-color="#546F94"/>
<stop offset="1" stop-color="white" stop-opacity="0"/>
</linearGradient>
</defs>
</svg>
